<mxfile host="app.diagrams.net" modified="2020-03-28T11:04:53.513Z" agent="Mozilla/5.0 (Windows NT 10.0; Win64; x64) AppleWebKit/537.36 (KHTML, like Gecko) Chrome/80.0.3987.149 Safari/537.36" etag="Dbq0GvbST9JdaEdX4YZq" version="12.9.3" type="github">
  <diagram id="O-SDE2Yfm0KPrJIjMzby" name="Page-1">
    <mxGraphModel dx="865" dy="483" grid="1" gridSize="10" guides="1" tooltips="1" connect="1" arrows="1" fold="1" page="1" pageScale="1" pageWidth="850" pageHeight="1100" math="0" shadow="0">
      <root>
        <mxCell id="0" />
        <mxCell id="1" parent="0" />
        <mxCell id="90OuRyl2dIqMDhaCZAeL-1" value="Experience Controller" style="rounded=0;whiteSpace=wrap;html=1;" vertex="1" parent="1">
          <mxGeometry x="190" y="180" width="120" height="60" as="geometry" />
        </mxCell>
        <mxCell id="90OuRyl2dIqMDhaCZAeL-2" value="Character Controller" style="rounded=0;whiteSpace=wrap;html=1;" vertex="1" parent="1">
          <mxGeometry x="320" y="180" width="120" height="60" as="geometry" />
        </mxCell>
        <mxCell id="90OuRyl2dIqMDhaCZAeL-3" value="countExperience()" style="rounded=0;whiteSpace=wrap;html=1;" vertex="1" parent="1">
          <mxGeometry x="190" y="240" width="120" height="30" as="geometry" />
        </mxCell>
        <mxCell id="90OuRyl2dIqMDhaCZAeL-5" value="saveExperience()" style="rounded=0;whiteSpace=wrap;html=1;" vertex="1" parent="1">
          <mxGeometry x="320" y="240" width="120" height="30" as="geometry" />
        </mxCell>
        <mxCell id="90OuRyl2dIqMDhaCZAeL-6" value="&lt;b&gt;long experience;&lt;br&gt;int level;&lt;/b&gt;&lt;br&gt;int strength;&lt;br&gt;int agility;&lt;br&gt;int intellect;&lt;br&gt;int maxHp;&lt;br&gt;int maxMp;&lt;br&gt;&lt;br&gt;int evasionChancePercent;&lt;br&gt;int criticalChancePercent;" style="rounded=0;whiteSpace=wrap;html=1;align=left;" vertex="1" parent="1">
          <mxGeometry x="630" y="90" width="160" height="180" as="geometry" />
        </mxCell>
        <mxCell id="90OuRyl2dIqMDhaCZAeL-7" value="Character" style="text;html=1;align=center;verticalAlign=middle;resizable=0;points=[];autosize=1;" vertex="1" parent="1">
          <mxGeometry x="652" y="69" width="70" height="20" as="geometry" />
        </mxCell>
      </root>
    </mxGraphModel>
  </diagram>
</mxfile>
